<svg width="32" height="32" viewBox="0 0 32 32" fill="none" xmlns="http://www.w3.org/2000/svg">
<path fill-rule="evenodd" clip-rule="evenodd" d="M9.98723 7.0128C7.64796 7.0128 5.48863 8.9502 5.48863 12.5111C5.48863 13.6717 5.93749 14.9933 6.73624 16.4029C7.529 17.8024 8.62365 19.214 9.81428 20.5366C12.1705 23.1538 14.8177 25.3281 15.9854 26.2458C17.153 25.3281 19.8002 23.1538 22.1564 20.5366C23.3461 19.214 24.4417 17.8024 25.2355 16.4029C26.0332 14.9933 26.4821 13.6717 26.4821 12.5111C26.4821 8.9502 24.3227 7.0128 21.9835 7.0128C20.313 7.0128 19.1704 7.73258 18.3546 8.49334C17.9537 8.86722 17.6408 9.24311 17.3699 9.568L17.3399 9.60499C17.211 9.75894 17.063 9.93589 16.9261 10.0718C16.8378 10.1614 16.7406 10.2418 16.6361 10.3118C16.5272 10.3817 16.2963 10.5117 15.9854 10.5117C15.6734 10.5117 15.4435 10.3817 15.3356 10.3118C15.2311 10.2418 15.1339 10.1614 15.0456 10.0718C14.9008 9.92251 14.7627 9.76674 14.6318 9.60499L14.6018 9.568C14.3299 9.24311 14.017 8.86822 13.6161 8.49334C12.8003 7.73258 11.6577 7.0128 9.98723 7.0128ZM3.48926 12.5111C3.48926 8.07447 6.32837 5.01343 9.98723 5.01343C12.3155 5.01343 13.922 6.04311 14.9807 7.0318C15.3945 7.41768 15.7304 7.80356 15.9854 8.10746C16.2403 7.80356 16.5762 7.41768 16.99 7.0318C18.0487 6.04311 19.6552 5.01343 21.9835 5.01343C25.6423 5.01343 28.4814 8.07447 28.4814 12.5111C28.4814 14.1576 27.8576 15.83 26.9739 17.3886C26.0842 18.9581 24.8886 20.4896 23.642 21.8742C21.1487 24.6433 18.3686 26.9186 17.182 27.8483C16.8413 28.1177 16.4197 28.2642 15.9854 28.2642C15.551 28.2642 15.1294 28.1177 14.7887 27.8483C13.6021 26.9186 10.822 24.6433 8.32874 21.8742C7.08213 20.4896 5.88551 18.9581 4.99679 17.3886C4.11306 15.829 3.48926 14.1576 3.48926 12.5111Z" fill="#13151B"/>
</svg>
