<svg width="16" height="20" viewBox="0 0 16 20" fill="none" xmlns="http://www.w3.org/2000/svg">
<g clip-path="url(#clip0_72_221)">
<path d="M12.0189 2.45623C12.2571 2.56893 12.3762 2.83983 12.298 3.09159L10.7055 8.22043L14.1865 8.41221L14.2606 8.42156C15.7697 8.72157 16.4379 9.79103 16.165 11.4067C15.9422 12.725 15.7498 14.913 15.5847 18.0121C15.358 19.5023 14.3373 20.2079 12.7392 20.0213C11.4378 19.8692 8.87746 19.4544 5.04812 18.7756C4.79212 19.1224 4.38037 19.3474 3.91608 19.3474H2.50956C1.73275 19.3474 1.10303 18.7177 1.10303 17.9409V8.79844C1.10303 8.02161 1.73275 7.39191 2.50956 7.39191H3.91608C4.35372 7.39191 4.74468 7.59178 5.00262 7.90522C6.60916 6.04385 7.73691 4.59261 8.38215 3.55945C9.26419 2.14721 10.5405 1.75712 12.0189 2.45623ZM9.27994 4.12012C8.53729 5.30919 7.22318 6.97896 5.33224 9.1398V17.751C9.08598 18.4157 11.5991 18.8224 12.862 18.97C13.9143 19.0929 14.4009 18.7565 14.533 17.9048C14.6948 14.82 14.8902 12.5986 15.1213 11.2304C15.2999 10.1732 14.9881 9.65698 14.0894 9.46696L9.96977 9.23995C9.62574 9.22103 9.39127 8.8836 9.49345 8.55462L11.1408 3.24902C10.3711 3.0265 9.79016 3.30314 9.27994 4.12012ZM3.91608 8.44681H2.50956C2.31536 8.44681 2.15792 8.60427 2.15792 8.79844V17.9409C2.15792 18.135 2.31536 18.2925 2.50956 18.2925H3.91608C4.11028 18.2925 4.26772 18.135 4.26772 17.9409V8.79844C4.26772 8.60427 4.11028 8.44681 3.91608 8.44681Z" fill="#41B982"/>
</g>
<defs>
<clipPath id="clip0_72_221">
<rect width="15.99" height="18.9881" fill="white" transform="translate(0 0.710938)"/>
</clipPath>
</defs>
</svg>
