<svg width="33" height="32" viewBox="0 0 33 32" fill="none" xmlns="http://www.w3.org/2000/svg">
<path fill-rule="evenodd" clip-rule="evenodd" d="M10.9672 6.49777C8.62794 6.49777 6.46861 8.43557 6.46861 11.9961C6.46861 13.1573 6.91727 14.4785 7.71622 15.8876C8.50798 17.2872 9.60363 18.6988 10.7945 20.0215C13.1505 22.6383 15.7977 24.8136 16.9653 25.731C18.133 24.8136 20.7801 22.6383 23.1362 20.0207C24.327 18.6988 25.4219 17.2872 26.2152 15.8876C27.0134 14.4785 27.462 13.1573 27.462 11.9961C27.462 8.43557 25.3027 6.49777 22.9635 6.49777C21.2928 6.49777 20.1507 7.21675 19.3342 7.97811C18.9343 8.35239 18.6208 8.72828 18.3505 9.05297L18.3185 9.09056C18.1905 9.24411 18.0434 9.42086 17.9058 9.55682C17.8363 9.62559 17.7379 9.71677 17.6163 9.79594C17.4234 9.92461 17.1972 9.99436 16.9653 9.99668C16.6534 9.99668 16.4231 9.86632 16.3143 9.79594C16.21 9.72625 16.113 9.64613 16.0248 9.55682C15.8801 9.40767 15.7421 9.25209 15.6114 9.09056L15.581 9.05297C15.309 8.72828 14.9971 8.35239 14.5965 7.97811C13.7807 7.21675 12.6371 6.49777 10.9672 6.49777ZM4.46924 11.9961C4.46924 7.55904 7.30835 4.4984 10.9672 4.4984C13.2953 4.4984 14.902 5.52848 15.9608 6.51697C16.3743 6.90325 16.7102 7.28793 16.9653 7.59183C17.2213 7.28793 17.5563 6.90325 17.9698 6.51697C19.0287 5.52848 20.6362 4.4984 22.9635 4.4984C26.6223 4.4984 29.4614 7.55904 29.4614 11.9961C29.4614 13.6419 28.8376 15.315 27.9539 16.8737C27.0654 18.4428 25.8689 19.9744 24.6221 21.3587C22.1285 24.1283 19.3486 26.4035 18.1626 27.3329C17.8217 27.6023 17.3999 27.7489 16.9653 27.7489C16.5308 27.7489 16.109 27.6023 15.7681 27.3329C14.5821 26.4035 11.8013 24.1283 9.30852 21.3587C8.06171 19.9752 6.86529 18.4428 5.97677 16.8737C5.09304 15.3142 4.46924 13.6427 4.46924 11.9961Z" fill="#1C1C1C"/>
</svg>
