<svg width="104" height="104" viewBox="0 0 104 104" fill="none" xmlns="http://www.w3.org/2000/svg">
<path d="M103.98 36.7478V85.5107C103.98 90.8386 99.4901 95.1599 94.033 95.0104C88.7652 94.8642 84.6414 90.4754 84.6414 85.2962V36.7478C84.6414 35.9704 85.284 35.3358 86.0786 35.3358H90.0058C90.7996 35.3358 91.4422 35.9671 91.4422 36.7478V85.3986C91.4422 86.8577 92.6479 88.2356 94.133 88.3274C95.8017 88.4289 97.1901 87.1258 97.1901 85.5107V36.7478C97.1901 35.9704 97.8328 35.3358 98.6265 35.3358H102.554C103.348 35.3358 103.991 35.9671 103.991 36.7478H103.98ZM17.0911 70.9698H1.43638C0.641819 70.9698 0 71.6011 0 72.3818V76.2717C0 77.0492 0.64182 77.6805 1.43719 77.6805H5.93399V102.579C5.93399 103.36 6.57581 103.991 7.37117 103.991H11.1636C11.9541 103.991 12.6 103.36 12.6 102.579V77.6805H17.0976C17.8881 77.6805 18.5348 77.0492 18.5348 76.2685V72.3786C18.5348 71.5986 17.8921 70.9666 17.0968 70.9666L17.0903 70.9698H17.0911ZM82.811 51.9833C82.811 61.375 75.036 69.0119 65.4818 69.0119H65.2544C55.7002 69.0119 47.9252 61.3718 47.9252 51.9833C47.9252 42.5957 55.7002 34.9548 65.2544 34.9548H65.4818C75.0393 34.9548 82.811 42.5957 82.811 51.9833ZM76.1377 51.9833C76.1377 46.2135 71.3573 41.5127 65.4818 41.5127H65.2462C59.3748 41.5127 54.5953 46.2102 54.5953 51.9833C54.5953 57.7573 59.3724 62.4507 65.2462 62.4507H65.4818C71.3541 62.4507 76.1377 57.7573 76.1377 51.9833ZM102.544 97.308H86.0745C85.2807 97.308 84.6381 97.9392 84.6381 98.72V102.579C84.6381 103.36 85.2807 103.991 86.0745 103.991H102.544C103.338 103.991 103.98 103.36 103.98 102.579V98.72C103.98 97.9392 103.338 97.308 102.544 97.308ZM1.43719 33.0009H9.25682C10.0481 33.0009 10.694 32.3697 10.694 31.5889V27.7299C10.694 26.9524 10.0514 26.3179 9.25682 26.3179H6.7976V1.41204C6.7976 0.63129 6.15578 3.22866e-05 5.36041 3.22866e-05H1.43638C0.643444 3.22866e-05 0 0.63129 0 1.41204V31.5922C0 32.3697 0.64182 33.0042 1.43719 33.0042V33.0009ZM91.4357 6.67983H102.544C103.338 6.67983 103.98 6.04857 103.98 5.26783V1.41204C103.98 0.63129 103.338 3.22866e-05 102.544 3.22866e-05H86.0745C85.2807 3.22866e-05 84.6381 0.63129 84.6381 1.41204V31.5922C84.6381 32.3697 85.2807 33.0042 86.0745 33.0042H102.544C103.338 33.0042 103.98 32.3729 103.98 31.5922V27.7331C103.98 26.9556 103.338 26.3211 102.544 26.3211H91.4357V19.8477H102.012C102.806 19.8477 103.449 19.2164 103.449 18.4357V14.5766C103.449 13.7991 102.806 13.1646 102.012 13.1646H91.4357V6.67983ZM12.604 31.2055L21.9023 1.02126C21.9962 0.723536 22.1831 0.463738 22.4354 0.279954C22.6878 0.0961703 22.9924 -0.00193148 23.3045 3.22866e-05H28.2474C28.5442 -0.00196202 28.8343 0.088478 29.0774 0.258806C29.3205 0.429133 29.5046 0.670903 29.6041 0.950575L40.2234 31.1161C40.5516 32.0496 39.8464 33.0237 38.8382 33.0237H34.7232C34.4265 33.0251 34.1367 32.9344 33.8937 32.7641C33.6507 32.5939 33.4665 32.3525 33.3665 32.0731L31.9325 28.0004C31.8302 27.7156 31.642 27.4697 31.3939 27.2965C31.1457 27.1233 30.8499 27.0315 30.5474 27.0336H22.0713C21.4254 27.0336 20.8559 27.4472 20.669 28.0549L19.4463 32.0195C19.3538 32.3111 19.1706 32.5655 18.9233 32.7455C18.676 32.9256 18.3776 33.0219 18.0717 33.0204H13.9689C13.0046 33.0204 12.314 32.1073 12.5935 31.2006L12.604 31.2055ZM23.0486 20.3579H29.2458L26.3512 12.1337C26.2228 11.7673 25.6915 11.7778 25.5769 12.1475L23.0486 20.3546V20.3579ZM42.3154 31.5922V1.43803C42.3154 0.66135 42.9572 0.02603 43.7526 0.02603H70.1931C76.7413 0.02603 82.3828 5.28733 82.4202 11.7193C82.4445 16.1552 79.9545 20.0305 76.2725 22.0534L82.0229 30.8204C82.6379 31.7579 81.9538 32.996 80.8181 32.996H76.1482C75.6608 32.996 75.205 32.7523 74.9426 32.3518L69.167 23.5507H50.5502C49.7589 23.5507 49.113 24.182 49.113 24.9627V31.5914C49.113 32.3689 48.4712 33.0034 47.6766 33.0034H43.7493C42.958 33.0034 42.3113 32.3721 42.3113 31.5914H42.3154V31.5922ZM49.113 16.875H70.4523C73.5541 16.875 76.0304 14.1737 75.5706 11.041C75.2017 8.51592 72.8701 6.7107 70.2695 6.7107H49.1138V16.8742L49.113 16.875ZM0 67.2229V36.7511C0 35.9712 0.64182 35.3391 1.43719 35.3391H29.1938C38.7058 35.3391 46.4117 43.0816 46.1249 52.4895C45.8527 61.5448 38.0493 68.6316 28.8307 68.6316H1.438C0.641819 68.6316 0 68.0004 0 67.2196V67.2229ZM6.66274 62.0843H28.9412C34.5063 62.0843 39.2517 57.8418 39.4621 52.3741C39.6839 46.6278 34.993 41.8857 29.193 41.8857H6.66355L6.66274 62.0843ZM27.5389 77.6667H80.9562C81.7507 77.6667 82.3926 77.0354 82.3926 76.2547V72.3956C82.3926 71.6157 81.7507 70.9836 80.9562 70.9836H22.1818C21.3913 70.9836 20.7454 71.6149 20.7454 72.3956V102.576C20.7454 103.357 21.3872 103.988 22.1818 103.988H80.9562C81.7507 103.988 82.3926 103.357 82.3926 102.576V98.7167C82.3926 97.936 81.7507 97.3047 80.9562 97.3047H27.5414V90.8321H80.4443C81.2381 90.8321 81.8807 90.2008 81.8807 89.4201V85.5611C81.8807 84.7803 81.2389 84.1491 80.4435 84.1491H27.5438V77.6561L27.5389 77.6667Z" fill="#FF3F52"/>
</svg>
