<svg width="33" height="32" viewBox="0 0 33 32" fill="none" xmlns="http://www.w3.org/2000/svg">
<path fill-rule="evenodd" clip-rule="evenodd" d="M4.95923 7.9975H28.9517V24.9922C28.9517 25.7876 28.6358 26.5504 28.0733 27.1128C27.5109 27.6753 26.7481 27.9912 25.9527 27.9912H7.95829C7.16289 27.9912 6.40007 27.6753 5.83763 27.1128C5.2752 26.5504 4.95923 25.7876 4.95923 24.9922V7.9975ZM6.9586 9.99687V24.9922C6.9586 25.544 7.40646 25.9919 7.95829 25.9919H25.9527C26.5045 25.9919 26.9524 25.544 26.9524 24.9922V9.99687H6.9586Z" fill="#1C1C1C"/>
<path d="M16.9551 2.99907C13.7923 2.99907 12.3016 5.4262 11.633 7.43109C11.5699 7.62062 11.5131 7.81015 11.4611 7.99729H13.5524C14.1369 6.2859 15.1438 4.99836 16.9551 4.99836C18.7673 4.99836 19.7733 6.2859 20.3579 7.99729H22.4492C22.3972 7.81015 22.3404 7.62142 22.2772 7.43109C21.6087 5.4262 20.118 2.99907 16.9551 2.99907ZM13.0285 10.4348C13.0445 10.2973 13.0621 10.1501 13.0845 9.99658H11.0668L11.0412 10.2141C10.9981 10.6047 10.9706 10.9969 10.9589 11.3897L10.9573 11.4641V11.496C10.9573 11.7612 11.0626 12.0154 11.2501 12.2029C11.4375 12.3904 11.6918 12.4957 11.9569 12.4957C12.222 12.4957 12.4763 12.3904 12.6638 12.2029C12.8512 12.0154 12.9566 11.7612 12.9566 11.496V11.4848L12.9574 11.4337C12.959 11.3873 12.9606 11.3145 12.9654 11.2217C12.9734 11.0338 12.9926 10.7627 13.0285 10.4348ZM22.9418 11.1266C22.9236 10.7488 22.8908 10.3718 22.8434 9.99658H20.8258C20.8841 10.403 20.9241 10.8118 20.9457 11.2217C20.9497 11.3153 20.9521 11.3873 20.9529 11.4337V11.4848L20.9537 11.496V11.4976C20.9539 11.7628 21.0594 12.0169 21.2471 12.2043C21.4347 12.3916 21.689 12.4967 21.9542 12.4965C22.2193 12.4963 22.4735 12.3907 22.6608 12.2031C22.8481 12.0155 22.9532 11.7612 22.953 11.496V11.4641C22.952 11.3515 22.9483 11.239 22.9418 11.1266Z" fill="#1C1C1C"/>
</svg>
