<svg width="18" height="19" viewBox="0 0 18 19" fill="none" xmlns="http://www.w3.org/2000/svg">
<path fill-rule="evenodd" clip-rule="evenodd" d="M8.84961 16.3562C4.89805 16.3562 1.67773 13.1359 1.67773 9.18433C1.67773 5.23276 4.89805 2.01245 8.84961 2.01245C12.8012 2.01245 16.0215 5.23276 16.0215 9.18433C16.0215 13.1359 12.8012 16.3562 8.84961 16.3562ZM8.84961 2.85901C5.35648 2.85901 2.5243 5.69851 2.5243 9.18433C2.5243 12.6701 5.3638 15.5096 8.84961 15.5096C12.3354 15.5096 15.1749 12.6696 15.1749 9.18433C15.1749 5.69851 12.3422 2.85901 8.84961 2.85901ZM8.84961 12.9784C8.73742 12.9781 8.62991 12.9334 8.55063 12.854C8.47135 12.7746 8.42676 12.667 8.42661 12.5548V7.37701C8.42661 7.14751 8.6128 6.95401 8.84961 6.95401C9.07911 6.95401 9.27261 7.1402 9.27261 7.37701V12.5548C9.27261 12.7916 9.07911 12.9784 8.84961 12.9784ZM8.84961 6.31558C8.7146 6.31558 8.58512 6.26194 8.48965 6.16648C8.39418 6.07101 8.34055 5.94153 8.34055 5.80651C8.34055 5.6715 8.39418 5.54202 8.48965 5.44655C8.58512 5.35108 8.7146 5.29745 8.84961 5.29745C8.98462 5.29745 9.1141 5.35108 9.20957 5.44655C9.30504 5.54202 9.35867 5.6715 9.35867 5.80651C9.35867 5.94153 9.30504 6.07101 9.20957 6.16648C9.1141 6.26194 8.98462 6.31558 8.84961 6.31558Z" fill="#191919"/>
</svg>
