<svg width="45" height="45" viewBox="0 0 45 45" fill="none" xmlns="http://www.w3.org/2000/svg">
<g clip-path="url(#clip0_43_623)">
<path d="M1.28711 22.3594C1.28711 10.2094 11.1371 0.359375 23.2871 0.359375C35.4371 0.359375 45.2871 10.2094 45.2871 22.3594C45.2871 34.5094 35.4371 44.3594 23.2871 44.3594C11.1371 44.3594 1.28711 34.5094 1.28711 22.3594Z" fill="white"/>
<path fill-rule="evenodd" clip-rule="evenodd" d="M16.5371 21.6093H27.4761L24.2561 18.3893L23.7261 17.8593L24.7861 16.7993L25.3171 17.3293L29.8171 21.8293C29.9576 21.9699 30.0365 22.1606 30.0365 22.3593C30.0365 22.5581 29.9576 22.7487 29.8171 22.8893L25.3171 27.3893L24.7871 27.9193L23.7261 26.8593L24.2561 26.3293L27.4761 23.1093H16.5361L16.5371 21.6093Z" fill="#191B21"/>
</g>
<defs>
<clipPath id="clip0_43_623">
<rect width="45" height="44" fill="white" transform="translate(0.620117 0.359375)"/>
</clipPath>
</defs>
</svg>
