<svg width="25" height="24" viewBox="0 0 25 24" fill="none" xmlns="http://www.w3.org/2000/svg">
<path d="M3.99392 5.81882C3.77719 5.81882 3.56935 5.91162 3.4161 6.07682C3.26285 6.24202 3.17676 6.46608 3.17676 6.6997C3.17676 6.93332 3.26285 7.15738 3.4161 7.32258C3.56935 7.48778 3.77719 7.58058 3.99392 7.58058H20.3371C20.5538 7.58058 20.7617 7.48778 20.9149 7.32258C21.0682 7.15738 21.1543 6.93332 21.1543 6.6997C21.1543 6.46608 21.0682 6.24202 20.9149 6.07682C20.7617 5.91162 20.5538 5.81882 20.3371 5.81882H3.99392ZM3.17676 12.8659C3.17676 12.6323 3.26285 12.4082 3.4161 12.243C3.56935 12.0778 3.77719 11.985 3.99392 11.985H20.3371C20.5538 11.985 20.7617 12.0778 20.9149 12.243C21.0682 12.4082 21.1543 12.6323 21.1543 12.8659C21.1543 13.0995 21.0682 13.3236 20.9149 13.4888C20.7617 13.654 20.5538 13.7468 20.3371 13.7468H3.99392C3.77719 13.7468 3.56935 13.654 3.4161 13.4888C3.26285 13.3236 3.17676 13.0995 3.17676 12.8659ZM3.17676 19.0321C3.17676 18.7984 3.26285 18.5744 3.4161 18.4092C3.56935 18.244 3.77719 18.1512 3.99392 18.1512H20.3371C20.5538 18.1512 20.7617 18.244 20.9149 18.4092C21.0682 18.5744 21.1543 18.7984 21.1543 19.0321C21.1543 19.2657 21.0682 19.4897 20.9149 19.6549C20.7617 19.8201 20.5538 19.9129 20.3371 19.9129H3.99392C3.77719 19.9129 3.56935 19.8201 3.4161 19.6549C3.26285 19.4897 3.17676 19.2657 3.17676 19.0321Z" fill="white"/>
</svg>
