<svg width="45" height="45" viewBox="0 0 45 45" fill="none" xmlns="http://www.w3.org/2000/svg">
<g clip-path="url(#clip0_43_91)">
<path d="M0.966797 22.3696C0.966797 10.2196 10.8168 0.369629 22.9668 0.369629C35.1168 0.369629 44.9668 10.2196 44.9668 22.3696C44.9668 34.5196 35.1168 44.3696 22.9668 44.3696C10.8168 44.3696 0.966797 34.5196 0.966797 22.3696Z" fill="white"/>
<path fill-rule="evenodd" clip-rule="evenodd" d="M16.2168 21.6196H27.1558L23.9358 18.3996L23.4058 17.8696L24.4658 16.8096L24.9968 17.3396L29.4968 21.8396C29.6373 21.9802 29.7162 22.1708 29.7162 22.3696C29.7162 22.5683 29.6373 22.7589 29.4968 22.8996L24.9968 27.3996L24.4668 27.9296L23.4058 26.8696L23.9358 26.3396L27.1558 23.1196H16.2158L16.2168 21.6196Z" fill="#191B21"/>
</g>
<defs>
<clipPath id="clip0_43_91">
<rect width="45" height="44" fill="white" transform="translate(0.299805 0.369629)"/>
</clipPath>
</defs>
</svg>
