<svg width="45" height="45" viewBox="0 0 45 45" fill="none" xmlns="http://www.w3.org/2000/svg">
<g clip-path="url(#clip0_43_577)">
<path d="M1.63721 22.3696C1.63721 10.2196 11.4872 0.369629 23.6372 0.369629C35.7872 0.369629 45.6372 10.2196 45.6372 22.3696C45.6372 34.5196 35.7872 44.3696 23.6372 44.3696C11.4872 44.3696 1.63721 34.5196 1.63721 22.3696Z" fill="white"/>
<path fill-rule="evenodd" clip-rule="evenodd" d="M16.8872 21.6196H27.8262L24.6062 18.3996L24.0762 17.8696L25.1362 16.8096L25.6672 17.3396L30.1672 21.8396C30.3077 21.9802 30.3866 22.1708 30.3866 22.3696C30.3866 22.5683 30.3077 22.7589 30.1672 22.8996L25.6672 27.3996L25.1372 27.9296L24.0762 26.8696L24.6062 26.3396L27.8262 23.1196H16.8862L16.8872 21.6196Z" fill="#191B21"/>
</g>
<defs>
<clipPath id="clip0_43_577">
<rect width="45" height="44" fill="white" transform="translate(0.970215 0.369629)"/>
</clipPath>
</defs>
</svg>
