<svg width="33" height="32" viewBox="0 0 33 32" fill="none" xmlns="http://www.w3.org/2000/svg">
<path fill-rule="evenodd" clip-rule="evenodd" d="M16.9753 5.99796C15.9147 5.99796 14.8976 6.41925 14.1477 7.16916C13.3978 7.91907 12.9765 8.93617 12.9765 9.99671C12.9765 11.0572 13.3978 12.0743 14.1477 12.8242C14.8976 13.5742 15.9147 13.9955 16.9753 13.9955C18.0358 13.9955 19.0529 13.5742 19.8028 12.8242C20.5527 12.0743 20.974 11.0572 20.974 9.99671C20.974 8.93617 20.5527 7.91907 19.8028 7.16916C19.0529 6.41925 18.0358 5.99796 16.9753 5.99796ZM10.9771 9.99671C10.9771 9.20902 11.1323 8.42905 11.4337 7.70132C11.7351 6.9736 12.177 6.31237 12.7339 5.75539C13.2909 5.19841 13.9521 4.75659 14.6799 4.45516C15.4076 4.15373 16.1876 3.99858 16.9753 3.99858C17.7629 3.99858 18.5429 4.15373 19.2706 4.45516C19.9984 4.75659 20.6596 5.19841 21.2166 5.75539C21.7735 6.31237 22.2154 6.9736 22.5168 7.70132C22.8182 8.42905 22.9734 9.20902 22.9734 9.99671C22.9734 11.5875 22.3414 13.1132 21.2166 14.238C20.0917 15.3629 18.5661 15.9948 16.9753 15.9948C15.3845 15.9948 13.8588 15.3629 12.7339 14.238C11.6091 13.1132 10.9771 11.5875 10.9771 9.99671ZM16.9753 19.4937C12.6038 19.4937 9.95185 20.4502 8.46591 21.2844C7.46942 21.8442 6.97838 23.0526 6.97838 24.5554V25.9917H26.9721V24.5562C26.9721 23.0526 26.4811 21.8442 25.4846 21.2844C23.9987 20.4502 21.3467 19.4937 16.9753 19.4937ZM7.48782 19.5409C9.30565 18.5204 12.3023 17.4944 16.9753 17.4944C21.649 17.4944 24.6449 18.5204 26.4627 19.5409C28.3725 20.6126 28.9715 22.7255 28.9715 24.5554V25.9917C28.9715 26.522 28.7609 27.0305 28.3859 27.4055C28.0109 27.7804 27.5024 27.9911 26.9721 27.9911H6.97838C6.44811 27.9911 5.93956 27.7804 5.56461 27.4055C5.18965 27.0305 4.979 26.522 4.979 25.9917V24.5562C4.979 22.7247 5.57802 20.6134 7.48782 19.5409Z" fill="#1C1C1C"/>
</svg>
