<svg width="15" height="14" viewBox="0 0 15 14" fill="none" xmlns="http://www.w3.org/2000/svg">
<path fill-rule="evenodd" clip-rule="evenodd" d="M11.6558 13.1373C11.4478 13.2438 11.2073 13.2468 10.9758 13.0808L8.14782 11.0348C8.02482 10.9578 7.92782 10.9248 7.82782 10.9248C7.71282 10.9248 7.60632 10.9478 7.47382 11.0028L4.68082 13.0428C4.45932 13.2273 4.21532 13.2243 3.99682 13.1233C3.97817 13.1148 3.95983 13.1056 3.94182 13.0958C3.89989 13.0752 3.86183 13.0474 3.82932 13.0138C3.85282 13.0378 3.79632 12.9868 3.76032 12.9438C3.68707 12.8606 3.63796 12.759 3.61831 12.6499C3.59866 12.5408 3.60921 12.4284 3.64882 12.3248L4.74432 8.96682C4.77759 8.86872 4.77824 8.76249 4.74616 8.66399C4.71407 8.56549 4.65099 8.48001 4.56632 8.42032L1.73132 6.34732C1.61561 6.27149 1.52794 6.15983 1.48171 6.02944C1.43547 5.89906 1.43323 5.75711 1.47532 5.62532C1.53082 5.36832 1.78532 5.15132 2.10632 5.15132H5.64232C5.84882 5.15132 6.04232 5.00932 6.11282 4.80882L7.20132 1.47432C7.29482 1.14432 7.57032 1.00732 7.82832 1.00732C7.94782 1.00732 8.04932 1.02532 8.17032 1.09882C8.29382 1.17482 8.38832 1.29232 8.45082 1.45882L9.54082 4.79982C9.61432 5.00932 9.80782 5.15132 10.0143 5.15132H13.5283C13.7548 5.15132 13.9358 5.25232 14.0518 5.41332C14.0818 5.45532 14.1063 5.49932 14.1198 5.52832C14.2668 5.76832 14.1988 6.13832 13.9183 6.33732L11.0698 8.42032C10.984 8.48122 10.9204 8.56849 10.8887 8.66886C10.857 8.76922 10.859 8.87718 10.8943 8.97632L11.9743 12.3128C12.1193 12.6523 11.9513 12.9878 11.6993 13.1133C11.6852 13.122 11.6707 13.13 11.6558 13.1373Z" fill="#BABABA"/>
</svg>
