<svg width="14" height="14" viewBox="0 0 14 14" fill="none" xmlns="http://www.w3.org/2000/svg">
<path fill-rule="evenodd" clip-rule="evenodd" d="M10.7056 13.1373C10.4976 13.2438 10.2571 13.2468 10.0256 13.0808L7.19762 11.0348C7.07462 10.9578 6.97762 10.9248 6.87762 10.9248C6.76262 10.9248 6.65612 10.9478 6.52362 11.0028L3.73062 13.0428C3.50912 13.2273 3.26512 13.2243 3.04662 13.1233C3.02798 13.1148 3.00964 13.1056 2.99162 13.0958C2.94969 13.0752 2.91164 13.0474 2.87912 13.0138C2.90262 13.0378 2.84612 12.9868 2.81012 12.9438C2.73687 12.8606 2.68777 12.759 2.66811 12.6499C2.64846 12.5408 2.65901 12.4284 2.69862 12.3248L3.79412 8.96682C3.8274 8.86872 3.82804 8.76249 3.79596 8.66399C3.76388 8.56549 3.70079 8.48001 3.61612 8.42032L0.781123 6.34732C0.665418 6.27149 0.577742 6.15983 0.53151 6.02944C0.485278 5.89906 0.483034 5.75711 0.525123 5.62532C0.580623 5.36832 0.835123 5.15132 1.15612 5.15132H4.69212C4.89862 5.15132 5.09212 5.00932 5.16262 4.80882L6.25112 1.47432C6.34462 1.14432 6.62012 1.00732 6.87812 1.00732C6.99762 1.00732 7.09912 1.02532 7.22012 1.09882C7.34362 1.17482 7.43812 1.29232 7.50062 1.45882L8.59062 4.79982C8.66412 5.00932 8.85762 5.15132 9.06412 5.15132H12.5781C12.8046 5.15132 12.9856 5.25232 13.1016 5.41332C13.1316 5.45532 13.1561 5.49932 13.1696 5.52832C13.3166 5.76832 13.2486 6.13832 12.9681 6.33732L10.1196 8.42032C10.0338 8.48122 9.9702 8.56849 9.93852 8.66886C9.90684 8.76922 9.90881 8.87718 9.94412 8.97632L11.0241 12.3128C11.1691 12.6523 11.0011 12.9878 10.7491 13.1133C10.735 13.122 10.7205 13.13 10.7056 13.1373Z" fill="#BABABA"/>
</svg>
