<svg width="15" height="14" viewBox="0 0 15 14" fill="none" xmlns="http://www.w3.org/2000/svg">
<path fill-rule="evenodd" clip-rule="evenodd" d="M11.6861 13.1373C11.4781 13.2438 11.2376 13.2468 11.0061 13.0808L8.17809 11.0348C8.05509 10.9578 7.95809 10.9248 7.85809 10.9248C7.74309 10.9248 7.63659 10.9478 7.50409 11.0028L4.71109 13.0428C4.48959 13.2273 4.24559 13.2243 4.02709 13.1233C4.00845 13.1148 3.9901 13.1056 3.97209 13.0958C3.93016 13.0752 3.8921 13.0474 3.85959 13.0138C3.88309 13.0378 3.82659 12.9868 3.79059 12.9438C3.71734 12.8606 3.66823 12.759 3.64858 12.6499C3.62893 12.5408 3.63948 12.4284 3.67909 12.3248L4.77459 8.96682C4.80787 8.86872 4.80851 8.76249 4.77643 8.66399C4.74435 8.56549 4.68126 8.48001 4.59659 8.42032L1.76159 6.34732C1.64589 6.27149 1.55821 6.15983 1.51198 6.02944C1.46575 5.89906 1.4635 5.75711 1.50559 5.62532C1.56109 5.36832 1.81559 5.15132 2.13659 5.15132H5.67259C5.87909 5.15132 6.07259 5.00932 6.14309 4.80882L7.23159 1.47432C7.32509 1.14432 7.60059 1.00732 7.85859 1.00732C7.97809 1.00732 8.07959 1.02532 8.20059 1.09882C8.32409 1.17482 8.41859 1.29232 8.48109 1.45882L9.57109 4.79982C9.64459 5.00932 9.83809 5.15132 10.0446 5.15132H13.5586C13.7851 5.15132 13.9661 5.25232 14.0821 5.41332C14.1121 5.45532 14.1366 5.49932 14.1501 5.52832C14.2971 5.76832 14.2291 6.13832 13.9486 6.33732L11.1001 8.42032C11.0143 8.48122 10.9507 8.56849 10.919 8.66886C10.8873 8.76922 10.8893 8.87718 10.9246 8.97632L12.0046 12.3128C12.1496 12.6523 11.9816 12.9878 11.7296 13.1133C11.7155 13.122 11.701 13.13 11.6861 13.1373Z" fill="#BABABA"/>
</svg>
