<svg width="15" height="14" viewBox="0 0 15 14" fill="none" xmlns="http://www.w3.org/2000/svg">
<path fill-rule="evenodd" clip-rule="evenodd" d="M11.6661 13.1373C11.4581 13.2438 11.2176 13.2468 10.9861 13.0808L8.15807 11.0348C8.03507 10.9578 7.93807 10.9248 7.83807 10.9248C7.72307 10.9248 7.61657 10.9478 7.48407 11.0028L4.69107 13.0428C4.46957 13.2273 4.22557 13.2243 4.00707 13.1233C3.98843 13.1148 3.97008 13.1056 3.95207 13.0958C3.91014 13.0752 3.87209 13.0474 3.83957 13.0138C3.86307 13.0378 3.80657 12.9868 3.77057 12.9438C3.69732 12.8606 3.64821 12.759 3.62856 12.6499C3.60891 12.5408 3.61946 12.4284 3.65907 12.3248L4.75457 8.96682C4.78785 8.86872 4.78849 8.76249 4.75641 8.66399C4.72433 8.56549 4.66124 8.48001 4.57657 8.42032L1.74157 6.34732C1.62587 6.27149 1.53819 6.15983 1.49196 6.02944C1.44573 5.89906 1.44348 5.75711 1.48557 5.62532C1.54107 5.36832 1.79557 5.15132 2.11657 5.15132H5.65257C5.85907 5.15132 6.05257 5.00932 6.12307 4.80882L7.21157 1.47432C7.30507 1.14432 7.58057 1.00732 7.83857 1.00732C7.95807 1.00732 8.05957 1.02532 8.18057 1.09882C8.30407 1.17482 8.39857 1.29232 8.46107 1.45882L9.55107 4.79982C9.62457 5.00932 9.81807 5.15132 10.0246 5.15132H13.5386C13.7651 5.15132 13.9461 5.25232 14.0621 5.41332C14.0921 5.45532 14.1166 5.49932 14.1301 5.52832C14.2771 5.76832 14.2091 6.13832 13.9286 6.33732L11.0801 8.42032C10.9942 8.48122 10.9306 8.56849 10.899 8.66886C10.8673 8.76922 10.8693 8.87718 10.9046 8.97632L11.9846 12.3128C12.1296 12.6523 11.9616 12.9878 11.7096 13.1133C11.6954 13.122 11.6809 13.13 11.6661 13.1373Z" fill="#F4AF48"/>
</svg>
