<svg width="16" height="17" viewBox="0 0 16 17" fill="none" xmlns="http://www.w3.org/2000/svg">
<path fill-rule="evenodd" clip-rule="evenodd" d="M11.7007 14.2101C11.4927 14.3166 11.2522 14.3196 11.0207 14.1536L8.19274 12.1076C8.06974 12.0306 7.97274 11.9976 7.87274 11.9976C7.75774 11.9976 7.65124 12.0206 7.51874 12.0756L4.72574 14.1156C4.50424 14.3001 4.26024 14.2971 4.04174 14.1961C4.0231 14.1875 4.00475 14.1784 3.98674 14.1686C3.94481 14.1479 3.90675 14.1202 3.87424 14.0866C3.89774 14.1106 3.84124 14.0596 3.80524 14.0166C3.73199 13.9334 3.68288 13.8317 3.66323 13.7226C3.64358 13.6135 3.65413 13.5011 3.69374 13.3976L4.78924 10.0396C4.82252 9.94148 4.82316 9.83524 4.79108 9.73674C4.759 9.63824 4.69591 9.55277 4.61124 9.49308L1.77624 7.42008C1.66054 7.34424 1.57286 7.23259 1.52663 7.1022C1.48039 6.97181 1.47815 6.82986 1.52024 6.69808C1.57574 6.44108 1.83024 6.22408 2.15124 6.22408H5.68724C5.89374 6.22408 6.08724 6.08208 6.15774 5.88158L7.24624 2.54708C7.33974 2.21708 7.61524 2.08008 7.87324 2.08008C7.99274 2.08008 8.09424 2.09808 8.21524 2.17158C8.33874 2.24758 8.43324 2.36508 8.49574 2.53158L9.58574 5.87258C9.65924 6.08208 9.85274 6.22408 10.0592 6.22408H13.5732C13.7997 6.22408 13.9807 6.32508 14.0967 6.48608C14.1267 6.52808 14.1512 6.57208 14.1647 6.60108C14.3117 6.84108 14.2437 7.21108 13.9632 7.41008L11.1147 9.49308C11.0289 9.55398 10.9653 9.64125 10.9336 9.74161C10.902 9.84197 10.9039 9.94994 10.9392 10.0491L12.0192 13.3856C12.1642 13.7251 11.9962 14.0606 11.7442 14.1861C11.7301 14.1947 11.7156 14.2028 11.7007 14.2101Z" fill="#BABABA"/>
</svg>
