<svg width="25" height="25" viewBox="0 0 25 25" fill="none" xmlns="http://www.w3.org/2000/svg">
<path d="M12.1478 3.43557C17.486 3.43557 21.7788 7.72736 21.7788 13.0116C21.782 14.2772 21.535 15.531 21.0521 16.7009C20.5693 17.8708 19.86 18.9338 18.965 19.8288C18.0701 20.7237 17.0071 21.433 15.8372 21.9159C14.6672 22.3988 13.4134 22.6457 12.1478 22.6426C6.86259 22.6436 2.5708 18.3498 2.5708 13.0116C2.5708 7.72736 6.86359 3.43557 12.1478 3.43557ZM4.66167 17.1383H7.52286C7.18348 15.9732 6.98038 14.7727 6.91761 13.5608H3.61624C3.67659 14.8192 4.03489 16.0454 4.66167 17.1383ZM8.62332 17.1383L11.6516 17.1933V13.5608H7.96505C8.02007 14.7713 8.24016 15.9818 8.62532 17.1383H8.62332ZM12.697 17.1933H15.7243C16.108 16.018 16.3302 14.796 16.3846 13.5608H12.697V17.1933ZM16.8247 17.1933H19.6859C20.2922 16.0928 20.6763 14.8823 20.7324 13.5608H17.43C17.3672 14.7904 17.1642 16.0098 16.8247 17.1933ZM19.0257 18.1837H16.4396C15.9963 19.2982 15.3834 20.3376 14.6228 21.265C16.3836 20.7148 17.9242 19.6693 19.0257 18.1837ZM15.3381 18.1837H12.697V21.5951H12.8621C13.9075 20.6607 14.7329 19.5043 15.3381 18.1837ZM11.6506 18.1837H9.00948C9.61473 19.4492 10.4401 20.6607 11.4855 21.5951H11.6506V18.1837ZM7.90902 18.1837H5.32195C6.43958 19.6372 7.97638 20.7128 9.72478 21.265C8.96424 20.3375 8.35244 19.2982 7.90902 18.1837ZM3.61524 12.5154H6.91761C6.98035 11.2854 7.18341 10.0667 7.52286 8.88284H4.66167C4.05542 9.9833 3.67126 11.1948 3.61524 12.5154ZM7.96305 12.5154H11.6506V8.88384H8.62432C8.24065 10.0588 8.01753 11.2805 7.96305 12.5154ZM12.697 12.5154H16.3846C16.3253 11.2807 16.1032 10.0593 15.7243 8.88284H12.697V12.5154ZM17.43 12.5154H20.7314C20.6716 11.2571 20.314 10.031 19.6879 8.93786H16.8257C17.1559 10.0933 17.375 11.3038 17.43 12.5154ZM5.32295 7.89243H7.90902C8.34921 6.79197 8.95546 5.74653 9.72578 4.81114C7.96505 5.36137 6.42441 6.40681 5.32295 7.89243ZM9.01048 7.89243H11.6516V4.48101H11.4875C10.4411 5.4164 9.61674 6.57188 9.01048 7.89243ZM12.698 7.89243H15.3391C14.7349 6.6269 13.9085 5.4164 12.8631 4.48101H12.698V7.89243ZM16.4396 7.89243H19.0277C17.9098 6.43872 16.3726 5.36319 14.6238 4.81114C15.3941 5.74653 16.0004 6.79197 16.4406 7.89243H16.4396Z" fill="white"/>
</svg>
