<svg width="15" height="14" viewBox="0 0 15 14" fill="none" xmlns="http://www.w3.org/2000/svg">
<path fill-rule="evenodd" clip-rule="evenodd" d="M11.6856 13.1373C11.4776 13.2438 11.2371 13.2468 11.0056 13.0808L8.1776 11.0348C8.0546 10.9578 7.9576 10.9248 7.8576 10.9248C7.7426 10.9248 7.6361 10.9478 7.5036 11.0028L4.7106 13.0428C4.4891 13.2273 4.2451 13.2243 4.0266 13.1233C4.00796 13.1148 3.98962 13.1056 3.9716 13.0958C3.92967 13.0752 3.89162 13.0474 3.8591 13.0138C3.8826 13.0378 3.8261 12.9868 3.7901 12.9438C3.71685 12.8606 3.66775 12.759 3.64809 12.6499C3.62844 12.5408 3.63899 12.4284 3.6786 12.3248L4.7741 8.96682C4.80738 8.86872 4.80802 8.76249 4.77594 8.66399C4.74386 8.56549 4.68077 8.48001 4.5961 8.42032L1.7611 6.34732C1.6454 6.27149 1.55772 6.15983 1.51149 6.02944C1.46526 5.89906 1.46301 5.75711 1.5051 5.62532C1.5606 5.36832 1.8151 5.15132 2.1361 5.15132H5.6721C5.8786 5.15132 6.0721 5.00932 6.1426 4.80882L7.2311 1.47432C7.3246 1.14432 7.6001 1.00732 7.8581 1.00732C7.9776 1.00732 8.0791 1.02532 8.2001 1.09882C8.3236 1.17482 8.4181 1.29232 8.4806 1.45882L9.5706 4.79982C9.6441 5.00932 9.8376 5.15132 10.0441 5.15132H13.5581C13.7846 5.15132 13.9656 5.25232 14.0816 5.41332C14.1116 5.45532 14.1361 5.49932 14.1496 5.52832C14.2966 5.76832 14.2286 6.13832 13.9481 6.33732L11.0996 8.42032C11.0138 8.48122 10.9502 8.56849 10.9185 8.66886C10.8868 8.76922 10.8888 8.87718 10.9241 8.97632L12.0041 12.3128C12.1491 12.6523 11.9811 12.9878 11.7291 13.1133C11.715 13.122 11.7005 13.13 11.6856 13.1373Z" fill="#BABABA"/>
</svg>
